<svg xmlns="http://www.w3.org/2000/svg" viewBox="0 0 27.3 640.84"><g><g><line fill="none" stroke="#008FCD" stroke-miterlimit="10" x1="27.3" y1="371.43" x2="0" y2="371.43"/><line fill="none" stroke="#008FCD" stroke-miterlimit="10" x1="27.3" y1="359.46" x2="0" y2="359.46"/><line fill="none" stroke="#008FCD" stroke-miterlimit="10" x1="27.3" y1="347.49" x2="0" y2="347.49"/><line fill="none" stroke="#008FCD" stroke-miterlimit="10" x1="27.3" y1="335.51" x2="0" y2="335.51"/><line fill="none" stroke="#008FCD" stroke-miterlimit="10" x1="27.3" y1="323.54" x2="0" y2="323.54"/><line fill="none" stroke="#008FCD" stroke-miterlimit="10" x1="27.3" y1="311.57" x2="0" y2="311.57"/><line fill="none" stroke="#008FCD" stroke-miterlimit="10" x1="27.3" y1="299.6" x2="0" y2="299.6"/><line fill="none" stroke="#008FCD" stroke-miterlimit="10" x1="27.3" y1="287.62" x2="0" y2="287.62"/><line fill="none" stroke="#008FCD" stroke-miterlimit="10" x1="27.3" y1="275.65" x2="0" y2="275.65"/><line fill="none" stroke="#008FCD" stroke-miterlimit="10" x1="27.3" y1="263.68" x2="0" y2="263.68"/><line fill="none" stroke="#008FCD" stroke-miterlimit="10" x1="27.3" y1="251.71" x2="0" y2="251.71"/><line fill="none" stroke="#008FCD" stroke-miterlimit="10" x1="27.3" y1="239.73" x2="0" y2="239.73"/><line fill="none" stroke="#008FCD" stroke-miterlimit="10" x1="27.3" y1="227.76" x2="0" y2="227.76"/><line fill="none" stroke="#008FCD" stroke-miterlimit="10" x1="27.3" y1="108.25" x2="0" y2="108.25"/><line fill="none" stroke="#008FCD" stroke-miterlimit="10" x1="27.3" y1="215.79" x2="0" y2="215.79"/><line fill="none" stroke="#008FCD" stroke-miterlimit="10" x1="27.3" y1="96.28" x2="0" y2="96.28"/><line fill="none" stroke="#008FCD" stroke-miterlimit="10" x1="27.3" y1="203.82" x2="0" y2="203.82"/><line fill="none" stroke="#008FCD" stroke-miterlimit="10" x1="27.3" y1="84.31" x2="0" y2="84.31"/><line fill="none" stroke="#008FCD" stroke-miterlimit="10" x1="27.3" y1="191.85" x2="0" y2="191.85"/><line fill="none" stroke="#008FCD" stroke-miterlimit="10" x1="27.3" y1="72.33" x2="0" y2="72.33"/><line fill="none" stroke="#008FCD" stroke-miterlimit="10" x1="27.3" y1="179.87" x2="0" y2="179.87"/><line fill="none" stroke="#008FCD" stroke-miterlimit="10" x1="27.3" y1="60.36" x2="0" y2="60.36"/><line fill="none" stroke="#008FCD" stroke-miterlimit="10" x1="27.3" y1="167.9" x2="0" y2="167.9"/><line fill="none" stroke="#008FCD" stroke-miterlimit="10" x1="27.3" y1="48.39" x2="0" y2="48.39"/><line fill="none" stroke="#008FCD" stroke-miterlimit="10" x1="27.3" y1="155.93" x2="0" y2="155.93"/><line fill="none" stroke="#008FCD" stroke-miterlimit="10" x1="27.3" y1="36.42" x2="0" y2="36.42"/><line fill="none" stroke="#008FCD" stroke-miterlimit="10" x1="27.3" y1="143.96" x2="0" y2="143.96"/><line fill="none" stroke="#008FCD" stroke-miterlimit="10" x1="27.3" y1="24.44" x2="0" y2="24.44"/><line fill="none" stroke="#008FCD" stroke-miterlimit="10" x1="27.3" y1="131.98" x2="0" y2="131.98"/><line fill="none" stroke="#008FCD" stroke-miterlimit="10" x1="27.3" y1="12.47" x2="0" y2="12.47"/><line fill="none" stroke="#008FCD" stroke-miterlimit="10" x1="27.3" y1="120.01" x2="0" y2="120.01"/><line fill="none" stroke="#008FCD" stroke-miterlimit="10" x1="27.3" y1=".5" x2="0" y2=".5"/><line fill="none" stroke="#008FCD" stroke-miterlimit="10" x1="20.19" y1="377.31" x2="0" y2="377.31"/><line fill="none" stroke="#008FCD" stroke-miterlimit="10" x1="20.19" y1="365.34" x2="0" y2="365.34"/><line fill="none" stroke="#008FCD" stroke-miterlimit="10" x1="20.19" y1="353.37" x2="0" y2="353.37"/><line fill="none" stroke="#008FCD" stroke-miterlimit="10" x1="20.19" y1="341.39" x2="0" y2="341.39"/><line fill="none" stroke="#008FCD" stroke-miterlimit="10" x1="20.19" y1="329.42" x2="0" y2="329.42"/><line fill="none" stroke="#008FCD" stroke-miterlimit="10" x1="20.19" y1="317.45" x2="0" y2="317.45"/><line fill="none" stroke="#008FCD" stroke-miterlimit="10" x1="20.19" y1="305.48" x2="0" y2="305.48"/><line fill="none" stroke="#008FCD" stroke-miterlimit="10" x1="20.19" y1="293.5" x2="0" y2="293.5"/><line fill="none" stroke="#008FCD" stroke-miterlimit="10" x1="20.19" y1="281.53" x2="0" y2="281.53"/><line fill="none" stroke="#008FCD" stroke-miterlimit="10" x1="20.19" y1="269.56" x2="0" y2="269.56"/><line fill="none" stroke="#008FCD" stroke-miterlimit="10" x1="20.19" y1="257.59" x2="0" y2="257.59"/><line fill="none" stroke="#008FCD" stroke-miterlimit="10" x1="20.19" y1="245.61" x2="0" y2="245.61"/><line fill="none" stroke="#008FCD" stroke-miterlimit="10" x1="20.19" y1="233.64" x2="0" y2="233.64"/><line fill="none" stroke="#008FCD" stroke-miterlimit="10" x1="20.19" y1="114.13" x2="0" y2="114.13"/><line fill="none" stroke="#008FCD" stroke-miterlimit="10" x1="20.19" y1="221.67" x2="0" y2="221.67"/><line fill="none" stroke="#008FCD" stroke-miterlimit="10" x1="20.19" y1="102.16" x2="0" y2="102.16"/><line fill="none" stroke="#008FCD" stroke-miterlimit="10" x1="20.19" y1="209.7" x2="0" y2="209.7"/><line fill="none" stroke="#008FCD" stroke-miterlimit="10" x1="20.19" y1="90.19" x2="0" y2="90.19"/><line fill="none" stroke="#008FCD" stroke-miterlimit="10" x1="20.19" y1="197.73" x2="0" y2="197.73"/><line fill="none" stroke="#008FCD" stroke-miterlimit="10" x1="20.19" y1="78.21" x2="0" y2="78.21"/><line fill="none" stroke="#008FCD" stroke-miterlimit="10" x1="20.19" y1="185.75" x2="0" y2="185.75"/><line fill="none" stroke="#008FCD" stroke-miterlimit="10" x1="20.19" y1="66.24" x2="0" y2="66.24"/><line fill="none" stroke="#008FCD" stroke-miterlimit="10" x1="20.19" y1="173.78" x2="0" y2="173.78"/><line fill="none" stroke="#008FCD" stroke-miterlimit="10" x1="20.19" y1="54.27" x2="0" y2="54.27"/><line fill="none" stroke="#008FCD" stroke-miterlimit="10" x1="20.19" y1="161.81" x2="0" y2="161.81"/><line fill="none" stroke="#008FCD" stroke-miterlimit="10" x1="20.19" y1="42.3" x2="0" y2="42.3"/><line fill="none" stroke="#008FCD" stroke-miterlimit="10" x1="20.19" y1="149.84" x2="0" y2="149.84"/><line fill="none" stroke="#008FCD" stroke-miterlimit="10" x1="20.19" y1="30.32" x2="0" y2="30.32"/><line fill="none" stroke="#008FCD" stroke-miterlimit="10" x1="20.19" y1="137.86" x2="0" y2="137.86"/><line fill="none" stroke="#008FCD" stroke-miterlimit="10" x1="20.19" y1="18.35" x2="0" y2="18.35"/><line fill="none" stroke="#008FCD" stroke-miterlimit="10" x1="20.19" y1="125.89" x2="0" y2="125.89"/><line fill="none" stroke="#008FCD" stroke-miterlimit="10" x1="20.19" y1="6.38" x2="0" y2="6.38"/><line fill="none" stroke="#008FCD" stroke-miterlimit="10" x1="27.3" y1="634.46" y2="634.46"/><line fill="none" stroke="#008FCD" stroke-miterlimit="10" x1="27.3" y1="622.49" y2="622.49"/><line fill="none" stroke="#008FCD" stroke-miterlimit="10" x1="27.3" y1="610.51" y2="610.51"/><line fill="none" stroke="#008FCD" stroke-miterlimit="10" x1="27.3" y1="598.54" y2="598.54"/><line fill="none" stroke="#008FCD" stroke-miterlimit="10" x1="27.3" y1="586.57" y2="586.57"/><line fill="none" stroke="#008FCD" stroke-miterlimit="10" x1="27.3" y1="574.6" y2="574.6"/><line fill="none" stroke="#008FCD" stroke-miterlimit="10" x1="27.3" y1="562.62" y2="562.62"/><line fill="none" stroke="#008FCD" stroke-miterlimit="10" x1="27.3" y1="550.65" y2="550.65"/><line fill="none" stroke="#008FCD" stroke-miterlimit="10" x1="27.3" y1="538.68" y2="538.68"/><line fill="none" stroke="#008FCD" stroke-miterlimit="10" x1="27.3" y1="526.71" y2="526.71"/><line fill="none" stroke="#008FCD" stroke-miterlimit="10" x1="27.3" y1="514.74" y2="514.74"/><line fill="none" stroke="#008FCD" stroke-miterlimit="10" x1="27.3" y1="502.76" y2="502.76"/><line fill="none" stroke="#008FCD" stroke-miterlimit="10" x1="27.3" y1="490.79" y2="490.79"/><line fill="none" stroke="#008FCD" stroke-miterlimit="10" x1="27.3" y1="478.82" y2="478.82"/><line fill="none" stroke="#008FCD" stroke-miterlimit="10" x1="27.3" y1="466.85" y2="466.85"/><line fill="none" stroke="#008FCD" stroke-miterlimit="10" x1="27.3" y1="454.87" y2="454.87"/><line fill="none" stroke="#008FCD" stroke-miterlimit="10" x1="27.3" y1="442.9" y2="442.9"/><line fill="none" stroke="#008FCD" stroke-miterlimit="10" x1="27.3" y1="430.93" y2="430.93"/><line fill="none" stroke="#008FCD" stroke-miterlimit="10" x1="27.3" y1="418.96" y2="418.96"/><line fill="none" stroke="#008FCD" stroke-miterlimit="10" x1="27.3" y1="406.98" y2="406.98"/><line fill="none" stroke="#008FCD" stroke-miterlimit="10" x1="27.3" y1="395.01" y2="395.01"/><line fill="none" stroke="#008FCD" stroke-miterlimit="10" x1="27.3" y1="383.04" y2="383.04"/><line fill="none" stroke="#008FCD" stroke-miterlimit="10" x1="20.19" y1="640.34" x2="0" y2="640.34"/><line fill="none" stroke="#008FCD" stroke-miterlimit="10" x1="20.19" y1="628.37" x2="0" y2="628.37"/><line fill="none" stroke="#008FCD" stroke-miterlimit="10" x1="20.19" y1="616.39" x2="0" y2="616.39"/><line fill="none" stroke="#008FCD" stroke-miterlimit="10" x1="20.19" y1="604.42" x2="0" y2="604.42"/><line fill="none" stroke="#008FCD" stroke-miterlimit="10" x1="20.19" y1="592.45" x2="0" y2="592.45"/><line fill="none" stroke="#008FCD" stroke-miterlimit="10" x1="20.19" y1="580.48" x2="0" y2="580.48"/><line fill="none" stroke="#008FCD" stroke-miterlimit="10" x1="20.19" y1="568.5" x2="0" y2="568.5"/><line fill="none" stroke="#008FCD" stroke-miterlimit="10" x1="20.19" y1="556.53" x2="0" y2="556.53"/><line fill="none" stroke="#008FCD" stroke-miterlimit="10" x1="20.19" y1="544.56" x2="0" y2="544.56"/><line fill="none" stroke="#008FCD" stroke-miterlimit="10" x1="20.19" y1="532.59" x2="0" y2="532.59"/><line fill="none" stroke="#008FCD" stroke-miterlimit="10" x1="20.19" y1="520.61" x2="0" y2="520.61"/><line fill="none" stroke="#008FCD" stroke-miterlimit="10" x1="20.19" y1="508.64" x2="0" y2="508.64"/><line fill="none" stroke="#008FCD" stroke-miterlimit="10" x1="20.19" y1="496.67" x2="0" y2="496.67"/><line fill="none" stroke="#008FCD" stroke-miterlimit="10" x1="20.19" y1="484.7" x2="0" y2="484.7"/><line fill="none" stroke="#008FCD" stroke-miterlimit="10" x1="20.19" y1="472.73" x2="0" y2="472.73"/><line fill="none" stroke="#008FCD" stroke-miterlimit="10" x1="20.19" y1="460.75" x2="0" y2="460.75"/><line fill="none" stroke="#008FCD" stroke-miterlimit="10" x1="20.19" y1="448.78" x2="0" y2="448.78"/><line fill="none" stroke="#008FCD" stroke-miterlimit="10" x1="20.19" y1="436.81" x2="0" y2="436.81"/><line fill="none" stroke="#008FCD" stroke-miterlimit="10" x1="20.19" y1="424.84" x2="0" y2="424.84"/><line fill="none" stroke="#008FCD" stroke-miterlimit="10" x1="20.19" y1="412.86" x2="0" y2="412.86"/><line fill="none" stroke="#008FCD" stroke-miterlimit="10" x1="20.19" y1="400.89" x2="0" y2="400.89"/><line fill="none" stroke="#008FCD" stroke-miterlimit="10" x1="20.19" y1="388.92" x2="0" y2="388.92"/></g></g></svg>