<?xml version="1.0" encoding="UTF-8"?>
<svg id="Vrstva_2" data-name="Vrstva 2" xmlns="http://www.w3.org/2000/svg" viewBox="0 0 35.97 28.69">
  <defs>
    <style>
      .cls-1 {
        fill: #331f5e;
      }

      .cls-1, .cls-2 {
        stroke-width: 0px;
      }

      .cls-2 {
        fill: #008ecc;
      }
    </style>
  </defs>
  <g id="Vrstva_1-2" data-name="Vrstva 1">
    <g>
      <path id="Path_255" data-name="Path 255" class="cls-1" d="m30.96,6.98h2.03v.52h-.73v2.06h-.56v-2.06h-.73v-.52Z"/>
      <path id="Path_256" data-name="Path 256" class="cls-1" d="m33.33,9.57v-2.58h.55l.77,1.92.77-1.92h.55v2.58h-.55v-.54c-.01-.29,0-.58.03-.87l-.55,1.41h-.52l-.54-1.41c.03.23.04.46.04.69v.72h-.55Z"/>
      <rect id="Rectangle_288" data-name="Rectangle 288" class="cls-1" x="7.17" y="14.35" width="7.18" height="7.18"/>
      <path id="Path_258" data-name="Path 258" class="cls-2" d="m35.87,14.35h0c0,7.92-6.42,14.35-14.35,14.35h-7.18v-7.17h7.18c3.96,0,7.18-3.21,7.18-7.18h0s7.17,0,7.17,0Z"/>
      <path id="Path_259" data-name="Path 259" class="cls-2" d="m28.7,14.35h-7.18c0-3.96-3.21-7.18-7.18-7.18h-7.18C3.21,7.17,0,3.96,0,0h0s14.35,0,14.35,0c7.92,0,14.35,6.42,14.35,14.35"/>
    </g>
  </g>
</svg>