<svg xmlns="http://www.w3.org/2000/svg" viewBox="0 0 24 24"><g><g><g><g><g><g><path fill="#008FCD" d="M19.68,3.22c-4.22-4.26-11.1-4.3-15.36-.08C.06,7.36.02,14.24,4.24,18.5c.03.03.05.05.08.08,4.22,4.26,11.1,4.3,15.36.08,4.26-4.22,4.3-11.1.08-15.36-.03-.03-.05-.05-.08-.08ZM12,20.48c-5.29,0-9.58-4.29-9.58-9.58,0-5.29,4.29-9.58,9.58-9.58,5.29,0,9.58,4.29,9.58,9.58,0,5.29-4.29,9.58-9.58,9.58Z"/><path fill="#008FCD" d="M11.36,8.98c0-1.41-1.14-2.56-2.56-2.56-1.41,0-2.55,1.14-2.56,2.56h1.28c0-.71.57-1.28,1.28-1.28s1.28.57,1.28,1.28-.57,1.28-1.28,1.28h0v1.28c.71,0,1.28.57,1.28,1.28s-.57,1.28-1.28,1.28-1.28-.57-1.28-1.28h-1.28c0,1.41,1.14,2.56,2.55,2.56,1.41,0,2.56-1.14,2.56-2.55,0-.74-.32-1.44-.87-1.92.55-.48.87-1.18.87-1.92h0Z"/><path fill="#008FCD" d="M15.19,6.43c-1.41,0-2.55,1.14-2.56,2.56v3.83c0,1.41,1.15,2.55,2.56,2.55,1.41,0,2.55-1.14,2.55-2.55v-3.83c0-1.41-1.14-2.55-2.56-2.56ZM16.47,12.82c0,.71-.59,1.27-1.29,1.26-.69,0-1.25-.57-1.26-1.26v-3.83c0-.71.55-1.29,1.26-1.29.71,0,1.29.55,1.29,1.26,0,.01,0,.02,0,.03v3.83Z"/></g></g></g><rect fill="#B4E2F6" x="6.64" y="17.13" width="10.76" height="6.87"/><g ><g ><path fill="#fff" d="M9.35,22.17v-3.75h.61v3.75h-.61Z"/><path fill="#fff" d="M10.46,20.92c0-.78.51-1.32,1.24-1.32s1.22.5,1.22,1.27v.19h-1.87c.05.44.28.66.68.66.34,0,.56-.13.63-.37h.57c-.11.54-.56.87-1.21.87-.74,0-1.26-.54-1.26-1.31ZM11.06,20.68h1.25c0-.34-.24-.57-.6-.57s-.58.2-.64.57Z"/><path fill="#fff" d="M13.62,22.17v-1.97h-.48v-.51h.48v-.78h.61v.78h.48v.51h-.48v1.97h-.61Z"/></g></g></g></g></g></svg>